PathFileType	4	(X/Y/Z)	C:\Users\°ÂÌØÂü\Desktop\20210112\bx_n_5_1801-Unnamed.trc
DataRate	CameraRate	NumFrames	NumMarkers	Units	OrigDataRate	OrigDataStartFrame	OrigNumFrames
50.00	50.00	       6	0	mm	50.00	346	       460
Frame#	Time	
		

346	6.900	-796.89484	280.49551	742.07697	-547.24982	-13.45967	480.90710	-614.88123	254.64070	580.52271	-683.15192	-36.45395	767.83453	-572.15173	86.11649	1008.83057	-704.79376	72.16441	211.05644	-641.98291	261.72925	479.23056	-591.09656	218.70670	172.81992	-564.04169	47.03912	554.96808	-608.33990	-75.66597	158.37267	-670.41284	53.77507	156.31459	-650.06622	-69.00040	161.65111	-595.37769	-60.57348	531.38000	-759.37579	224.55643	207.30617	-701.97046	149.94110	207.50352	-882.55884	296.08118	144.59036	-585.36066	256.10150	537.94452	-596.78314	24.22002	168.43117	-547.36365	-32.59184	162.90685	-673.84790	171.65732	153.15018	-535.52948	212.45168	492.51736	-660.55109	297.52386	158.66782	-624.48578	305.54770	158.89836	-554.56445	257.11261	163.67767	-528.40472	304.13745	146.30460	-374.76108	116.43912	1480.97388	-518.27435	272.57983	1199.85901	-986.60223	89.51141	895.03241	-517.83398	-72.73211	143.57614	-787.08820	46.83787	178.55029	-791.40594	174.03737	188.77744	-511.27618	-68.98349	1220.30774	-686.95105	278.22815	659.38318	-659.81055	-60.99186	468.02051	-749.77875	-15.59276	208.09492	-875.82855	-78.79845	141.17526	-606.93616	-62.47636	571.21094				-776.17499	217.30420	876.95563	-798.57709	-90.46312	749.36072							-659.20026	221.34814	762.06055				-715.88654	-85.50251	667.32550	
347	6.920	-794.94763	279.73392	749.18060				-616.91425	253.95506	583.05103	-680.17450	-36.97362	771.15027	-571.62439	85.88136	1024.37781	-704.85339	71.99448	211.08597	-644.62146	261.41287	480.22266	-590.94995	218.77254	173.17314				-608.22992	-75.87884	158.49052	-670.23804	53.68956	156.38857	-650.24384	-69.15311	161.58295	-597.43842	-60.23219	532.35822	-759.48254	224.56058	207.29659	-702.03522	150.06346	207.82104	-882.62158	296.14899	144.58987	-588.34448	255.45744	539.32379	-597.01923	23.99092	168.69962	-547.30524	-32.73863	162.87999	-673.92126	171.84686	153.31813	-537.95929	212.03427	493.71323	-660.64319	297.41544	158.61757	-624.42981	305.57129	158.70522	-554.55817	257.05164	163.74910	-528.32452	304.15231	146.36115	-382.72586	115.42742	1500.27869	-521.38812	271.96509	1216.13391	-983.89441	88.56966	903.82495	-517.87024	-72.73494	143.59019	-787.12366	46.85803	178.46114	-791.58521	174.21597	188.82420	-515.31580	-70.03451	1236.64551	-686.93884	277.13809	663.73053	-662.09045	-60.60443	468.76590	-750.35754	-15.59233	207.82834	-875.85034	-78.68372	141.27127	-608.74713	-62.00282	572.74750	-548.93390	-14.40530	481.60400	-772.88586	216.55074	887.29181	-795.87793	-90.93955	755.83527							-656.81921	220.78665	765.93787				-715.34180	-85.67181	671.34863	
348	6.940	-793.13306	278.94894	756.71057				-619.26215	253.36028	585.44092	-677.19904	-37.76622	774.86359	-570.63605	85.26703	1040.65857	-705.32947	71.66840	211.35899	-647.01752	260.51483	481.37424	-591.35950	218.59351	173.23668				-608.42206	-76.05986	158.06880	-670.17035	53.63194	156.51137	-650.27185	-69.05192	161.42583	-599.80194	-59.64798	533.84412	-759.65472	224.61424	207.14075	-701.27545	150.25591	207.20201	-882.55884	296.08118	144.59036	-591.11591	254.99693	541.47418	-597.00647	23.96285	168.66545	-547.53833	-32.68942	162.82104	-673.84821	171.83130	153.54448	-540.61993	211.80028	495.49960	-660.79163	297.72345	158.66597	-624.56165	305.55667	158.72766	-554.82568	257.06036	163.88411	-528.20758	304.25073	146.41353	-390.78000	114.83688	1519.23364	-524.29144	272.35214	1232.61987	-980.54907	87.43727	912.71637	-517.96783	-72.72501	143.50079	-787.06952	46.67623	178.34494	-791.75018	174.22110	188.62570	-519.44775	-70.99860	1252.69482	-687.45673	275.85938	667.32611	-663.87097	-59.93452	469.66638	-750.68915	-15.43159	207.56454	-875.85034	-78.68372	141.27127	-610.37854	-61.07375	574.26831	-551.32001	-13.22350	482.92126	-769.91962	215.76822	897.15985	-793.00250	-91.54871	762.35278							-654.74854	220.38365	769.53912				-714.74243	-85.42210	675.85297	
349	6.960	-791.33936	278.10062	763.84778				-621.92786	252.51807	588.59589	-674.78955	-38.27475	778.15808	-570.71271	84.50575	1056.60815	-705.59967	71.46425	211.24419	-649.60718	259.71323	482.48111	-591.24579	218.80357	173.09958				-608.45801	-75.96412	157.96346	-670.73810	53.30513	156.61639	-650.36865	-69.17873	161.29800	-602.08032	-59.11078	535.37872	-759.74390	224.67645	206.86923	-701.39764	150.27545	207.96991	-882.53406	296.09598	144.57982	-593.84235	254.04454	543.10803	-597.22528	23.82866	168.79669	-547.75049	-32.67393	163.13614	-673.90326	171.85010	153.80339	-543.57050	211.30244	497.05307	-660.60864	297.71704	158.59514	-624.69250	305.77545	158.84041	-554.99585	257.04855	163.90280	-528.06927	304.00760	146.13414	-399.18262	114.02136	1538.37292	-527.66071	272.45728	1248.95508	-977.21472	86.04819	921.59802	-517.89569	-72.77301	143.30669	-787.30908	46.42192	178.26091	-791.77197	174.42058	188.42149	-523.80682	-71.58586	1268.59753	-688.05249	274.72931	671.62976	-666.05823	-59.05322	469.95782	-750.48505	-15.93860	207.79811	-875.85522	-78.73365	141.22168	-612.48358	-60.32019	576.13080	-553.47815	-12.44819	483.88293	-766.59009	214.76227	907.34692	-789.88141	-91.48560	768.25751							-653.09021	219.36491	772.78265				-713.77264	-84.96095	680.24268	
350	6.980	-789.45746	277.21310	771.07263				-624.59857	251.29359	590.83368	-671.37982	-37.75496	781.39532	-571.06793	83.71223	1071.95142	-705.67084	71.25536	211.40039	-652.13849	259.06253	484.00668	-591.57111	219.17101	173.22455				-608.36975	-76.03406	157.95490	-670.66589	53.15169	156.70387	-650.34375	-69.27402	161.45445	-604.33881	-57.96001	536.68274	-759.98157	224.82108	207.00580	-702.26202	150.27904	208.35574	-882.71790	296.09283	144.59695	-597.33270	253.06949	544.59454	-597.20203	23.71034	169.02611	-548.10107	-32.47371	163.17369	-673.83105	171.98183	154.32549	-547.19531	210.39586	498.05606	-660.76208	297.79660	158.76102	-624.61584	305.70621	158.79120	-555.31799	257.04831	163.81119	-528.09814	304.15833	146.31105	-407.84048	112.88783	1557.10864	-531.14905	271.46274	1265.17114	-973.26166	86.98775	928.62579	-517.79810	-72.78294	143.39609	-787.13440	46.08842	177.91086	-791.82269	174.38457	188.35393	-528.53894	-72.91376	1284.80090	-688.80939	273.60718	676.09058	-668.53528	-58.34462	471.17770	-750.84045	-15.89627	207.90601	-875.85522	-78.73365	141.22168	-614.18536	-59.89496	578.67804	-556.79419	-11.39118	484.60037	-763.85181	214.64592	918.02667	-786.94556	-92.36083	775.57050							-650.62543	218.32077	776.57013				-713.16608	-85.16598	684.58502	
351	7.000	-787.20105	276.32126	778.14801				-627.43030	250.75847	593.60602	-668.30188	-37.14267	785.21844	-570.81995	83.39832	1088.06262	-705.32526	70.66074	210.88713	-655.68719	258.91281	485.26822	-591.70636	219.32491	173.42558				-608.40918	-76.12665	157.91196	-670.66589	53.15169	156.70387	-650.54065	-69.36230	161.31676	-606.98669	-57.09887	537.84180	-760.21198	224.64943	206.80196	-703.10480	150.19055	208.10945	-882.68439	296.18677	144.57034	-600.73096	252.40329	546.44220	-597.48981	23.59550	169.01253	-548.33276	-32.47556	162.87579	-673.90375	171.99525	154.31944	-550.32373	210.03976	500.34412	-660.77478	297.80304	158.58774	-624.57507	305.79321	158.85141	-555.19196	256.99792	164.00311	-528.30585	304.29242	146.58966	-416.56161	111.84440	1575.67456	-534.87750	271.31750	1281.72131	-969.01874	82.80946	938.15674	-517.84479	-72.71366	143.35794	-787.25659	45.97010	177.75195	-791.79565	174.35577	188.16286	-532.31232	-74.91655	1301.61487	-689.45154	272.98312	680.54272	-670.72241	-58.00673	472.28232	-750.97382	-16.06245	207.81406	-875.85522	-78.73365	141.22168	-616.52179	-59.48255	580.54565	-559.34735	-11.26662	486.46939	-759.74725	214.20647	927.98499	-783.61902	-92.74147	781.62555							-649.19110	218.00237	780.08899				-712.34796	-85.34974	688.97278	
